<svg width="20" height="17" viewBox="0 0 20 17" fill="none" xmlns="http://www.w3.org/2000/svg">
<path d="M18 4.03125V2.01562H1.96875V4.03125H18ZM18 14.0156V8.01562H1.96875V14.0156H18ZM18 0C18.5625 0 19.0312 0.203125 19.4062 0.609375C19.7812 0.984375 19.9688 1.45312 19.9688 2.01562V14.0156C19.9688 14.5781 19.7812 15.0625 19.4062 15.4688C19.0312 15.8438 18.5625 16.0312 18 16.0312H1.96875C1.40625 16.0312 0.9375 15.8438 0.5625 15.4688C0.1875 15.0625 0 14.5781 0 14.0156V2.01562C0 1.45312 0.1875 0.984375 0.5625 0.609375C0.9375 0.203125 1.40625 0 1.96875 0H18Z" fill="#76A8F9"/>
</svg>
