<svg width="54" height="54" viewBox="0 0 54 54" fill="none" xmlns="http://www.w3.org/2000/svg">
<rect x="0.5" y="0.5" width="53" height="53" rx="14.5" fill="#76A8F9" fill-opacity="0.15"/>
<rect x="0.5" y="0.5" width="53" height="53" rx="14.5" stroke="#76A8F9"/>
<path d="M36.0176 22.0176V19.75H17.9824V22.0176H36.0176ZM36.0176 33.25V26.5H17.9824V33.25H36.0176ZM36.0176 17.4824C36.6504 17.4824 37.1777 17.7109 37.5996 18.168C38.0215 18.5898 38.2324 19.1172 38.2324 19.75V33.25C38.2324 33.8828 38.0215 34.4277 37.5996 34.8848C37.1777 35.3066 36.6504 35.5176 36.0176 35.5176H17.9824C17.3496 35.5176 16.8223 35.3066 16.4004 34.8848C15.9785 34.4277 15.7676 33.8828 15.7676 33.25V19.75C15.7676 19.1172 15.9785 18.5898 16.4004 18.168C16.8223 17.7109 17.3496 17.4824 17.9824 17.4824H36.0176Z" fill="#76A8F9"/>
</svg>
